<svg width="54" height="54" viewBox="0 0 54 54" fill="none" xmlns="http://www.w3.org/2000/svg">
<path d="M0 2.34375C0 1.87133 0.187667 1.41827 0.521716 1.08422C0.855765 0.750167 1.30883 0.5625 1.78125 0.5625H7.125C7.52233 0.56261 7.90822 0.695562 8.22129 0.940213C8.53437 1.18486 8.75666 1.52717 8.85281 1.91269L10.2956 7.6875H51.6562C51.9178 7.68774 52.1761 7.74558 52.4128 7.8569C52.6494 7.96822 52.8587 8.1303 53.0256 8.33161C53.1926 8.53293 53.3132 8.76854 53.3788 9.02172C53.4445 9.2749 53.4536 9.53942 53.4054 9.7965L48.0617 38.2965C47.9853 38.7047 47.7687 39.0733 47.4493 39.3387C47.1299 39.6041 46.7278 39.7496 46.3125 39.75H14.25C13.8347 39.7496 13.4326 39.6041 13.1132 39.3387C12.7938 39.0733 12.5772 38.7047 12.5008 38.2965L7.16062 9.84994L5.73563 4.125H1.78125C1.30883 4.125 0.855765 3.93733 0.521716 3.60328C0.187667 3.26923 0 2.81617 0 2.34375ZM11.0509 11.25L15.7284 36.1875H44.8341L49.5116 11.25H11.0509ZM17.8125 39.75C15.9228 39.75 14.1106 40.5007 12.7744 41.8369C11.4382 43.1731 10.6875 44.9853 10.6875 46.875C10.6875 48.7647 11.4382 50.5769 12.7744 51.9131C14.1106 53.2493 15.9228 54 17.8125 54C19.7022 54 21.5144 53.2493 22.8506 51.9131C24.1868 50.5769 24.9375 48.7647 24.9375 46.875C24.9375 44.9853 24.1868 43.1731 22.8506 41.8369C21.5144 40.5007 19.7022 39.75 17.8125 39.75ZM42.75 39.75C40.8603 39.75 39.0481 40.5007 37.7119 41.8369C36.3757 43.1731 35.625 44.9853 35.625 46.875C35.625 48.7647 36.3757 50.5769 37.7119 51.9131C39.0481 53.2493 40.8603 54 42.75 54C44.6397 54 46.4519 53.2493 47.7881 51.9131C49.1243 50.5769 49.875 48.7647 49.875 46.875C49.875 44.9853 49.1243 43.1731 47.7881 41.8369C46.4519 40.5007 44.6397 39.75 42.75 39.75ZM17.8125 43.3125C18.7573 43.3125 19.6635 43.6878 20.3316 44.3559C20.9997 45.024 21.375 45.9302 21.375 46.875C21.375 47.8198 20.9997 48.726 20.3316 49.3941C19.6635 50.0622 18.7573 50.4375 17.8125 50.4375C16.8677 50.4375 15.9615 50.0622 15.2934 49.3941C14.6253 48.726 14.25 47.8198 14.25 46.875C14.25 45.9302 14.6253 45.024 15.2934 44.3559C15.9615 43.6878 16.8677 43.3125 17.8125 43.3125ZM42.75 43.3125C43.6948 43.3125 44.601 43.6878 45.2691 44.3559C45.9372 45.024 46.3125 45.9302 46.3125 46.875C46.3125 47.8198 45.9372 48.726 45.2691 49.3941C44.601 50.0622 43.6948 50.4375 42.75 50.4375C41.8052 50.4375 40.899 50.0622 40.2309 49.3941C39.5628 48.726 39.1875 47.8198 39.1875 46.875C39.1875 45.9302 39.5628 45.024 40.2309 44.3559C40.899 43.6878 41.8052 43.3125 42.75 43.3125V43.3125Z" fill="#2F2F2F"/>
</svg>
